<mxfile host="app.diagrams.net" agent="Mozilla/5.0 (Windows NT 10.0; Win64; x64) AppleWebKit/537.36 (KHTML, like Gecko) Chrome/136.0.0.0 Safari/537.36" version="26.2.14">
  <diagram name="Страница — 1" id="eh8wn1c81Gk86k1RrxCl">
    <mxGraphModel dx="6511" dy="2540" grid="1" gridSize="10" guides="1" tooltips="1" connect="1" arrows="1" fold="1" page="1" pageScale="1" pageWidth="1920" pageHeight="3000" math="0" shadow="0">
      <root>
        <mxCell id="0" />
        <mxCell id="1" parent="0" />
        <mxCell id="YC21IxaJlrMR5ol1vRR9-1" value="" style="whiteSpace=wrap;strokeWidth=2;" vertex="1" parent="1">
          <mxGeometry x="83.5" y="366.5" width="1430" height="1947" as="geometry" />
        </mxCell>
        <mxCell id="YC21IxaJlrMR5ol1vRR9-2" value="" style="whiteSpace=wrap;strokeWidth=2;" vertex="1" parent="1">
          <mxGeometry x="100" y="712" width="409" height="704" as="geometry" />
        </mxCell>
        <mxCell id="YC21IxaJlrMR5ol1vRR9-3" value="" style="whiteSpace=wrap;strokeWidth=2;" vertex="1" parent="1">
          <mxGeometry x="1600" y="360" width="455" height="1260" as="geometry" />
        </mxCell>
        <mxCell id="YC21IxaJlrMR5ol1vRR9-4" value="" style="whiteSpace=wrap;strokeWidth=2;" vertex="1" parent="1">
          <mxGeometry x="2117" y="358" width="752" height="1589" as="geometry" />
        </mxCell>
        <mxCell id="YC21IxaJlrMR5ol1vRR9-5" value="" style="whiteSpace=wrap;strokeWidth=2;" vertex="1" parent="1">
          <mxGeometry x="2153" y="889" width="319" height="657" as="geometry" />
        </mxCell>
        <mxCell id="YC21IxaJlrMR5ol1vRR9-6" value="" style="whiteSpace=wrap;strokeWidth=2;" vertex="1" parent="1">
          <mxGeometry x="2900" y="361" width="599" height="966" as="geometry" />
        </mxCell>
        <mxCell id="YC21IxaJlrMR5ol1vRR9-7" value="" style="whiteSpace=wrap;strokeWidth=2;" vertex="1" parent="1">
          <mxGeometry x="2920" y="668" width="559" height="634" as="geometry" />
        </mxCell>
        <mxCell id="YC21IxaJlrMR5ol1vRR9-8" value="transposed = []&#xa;length = len(matrix)" style="whiteSpace=wrap;strokeWidth=2;" vertex="1" parent="1">
          <mxGeometry x="3159" y="705" width="204" height="78" as="geometry" />
        </mxCell>
        <mxCell id="YC21IxaJlrMR5ol1vRR9-9" value="i = 0..length-1" style="shape=hexagon;perimeter=hexagonPerimeter2;fixedSize=1;strokeWidth=2;whiteSpace=wrap;" vertex="1" parent="1">
          <mxGeometry x="3192" y="890" width="137" height="39" as="geometry" />
        </mxCell>
        <mxCell id="YC21IxaJlrMR5ol1vRR9-10" value="row := matrix&#xa;row_list = list(row)" style="whiteSpace=wrap;strokeWidth=2;fontSize=11;spacingBottom=0;horizontal=1;verticalAlign=middle;textShadow=0;container=0;" vertex="1" parent="1">
          <mxGeometry x="2973" y="1046.5" width="196" height="78" as="geometry" />
        </mxCell>
        <mxCell id="YC21IxaJlrMR5ol1vRR9-11" value="transposed.append(row_list)" style="whiteSpace=wrap;strokeWidth=2;" vertex="1" parent="1">
          <mxGeometry x="3178" y="1211" width="265" height="54" as="geometry" />
        </mxCell>
        <mxCell id="YC21IxaJlrMR5ol1vRR9-12" value="transposed" style="shape=parallelogram;perimeter=parallelogramPerimeter;fixedSize=1;strokeWidth=2;whiteSpace=wrap;" vertex="1" parent="1">
          <mxGeometry x="3218" y="1066" width="132" height="39" as="geometry" />
        </mxCell>
        <mxCell id="YC21IxaJlrMR5ol1vRR9-13" value="matrix = X" style="whiteSpace=wrap;strokeWidth=2;" vertex="1" parent="1">
          <mxGeometry x="3194" y="527" width="134" height="54" as="geometry" />
        </mxCell>
        <mxCell id="YC21IxaJlrMR5ol1vRR9-14" value="Xt = transpose(X)" style="whiteSpace=wrap;strokeWidth=2;" vertex="1" parent="1">
          <mxGeometry x="3169" y="386" width="183" height="54" as="geometry" />
        </mxCell>
        <mxCell id="YC21IxaJlrMR5ol1vRR9-15" value="result = []" style="whiteSpace=wrap;strokeWidth=2;" vertex="1" parent="1">
          <mxGeometry x="2237" y="926" width="131" height="54" as="geometry" />
        </mxCell>
        <mxCell id="YC21IxaJlrMR5ol1vRR9-16" value="i = 0..m-1" style="shape=hexagon;perimeter=hexagonPerimeter2;fixedSize=1;strokeWidth=2;whiteSpace=wrap;" vertex="1" parent="1">
          <mxGeometry x="2250" y="1087" width="105" height="39" as="geometry" />
        </mxCell>
        <mxCell id="YC21IxaJlrMR5ol1vRR9-17" value="row = [0.0] * n" style="whiteSpace=wrap;strokeWidth=2;" vertex="1" parent="1">
          <mxGeometry x="2197" y="1268" width="163" height="54" as="geometry" />
        </mxCell>
        <mxCell id="YC21IxaJlrMR5ol1vRR9-18" value="result.append(row)" style="whiteSpace=wrap;strokeWidth=2;" vertex="1" parent="1">
          <mxGeometry x="2238" y="1431" width="198" height="54" as="geometry" />
        </mxCell>
        <mxCell id="YC21IxaJlrMR5ol1vRR9-19" value="m, k = len(a), len(a )" style="whiteSpace=wrap;strokeWidth=2;" vertex="1" parent="1">
          <mxGeometry x="2189.5" y="587" width="226" height="54" as="geometry" />
        </mxCell>
        <mxCell id="YC21IxaJlrMR5ol1vRR9-191" style="edgeStyle=orthogonalEdgeStyle;rounded=0;orthogonalLoop=1;jettySize=auto;html=1;" edge="1" parent="1" source="YC21IxaJlrMR5ol1vRR9-20" target="YC21IxaJlrMR5ol1vRR9-30">
          <mxGeometry relative="1" as="geometry" />
        </mxCell>
        <mxCell id="YC21IxaJlrMR5ol1vRR9-20" value="XtX = multiply_matrix(Xt, X)" style="whiteSpace=wrap;strokeWidth=2;" vertex="1" parent="1">
          <mxGeometry x="2162" y="383" width="260" height="78" as="geometry" />
        </mxCell>
        <mxCell id="YC21IxaJlrMR5ol1vRR9-21" value="n = len(b )" style="whiteSpace=wrap;strokeWidth=2;" vertex="1" parent="1">
          <mxGeometry x="2227" y="750" width="150" height="54" as="geometry" />
        </mxCell>
        <mxCell id="YC21IxaJlrMR5ol1vRR9-22" value="i = 0..m-1" style="shape=hexagon;perimeter=hexagonPerimeter2;fixedSize=1;strokeWidth=2;whiteSpace=wrap;" vertex="1" parent="1">
          <mxGeometry x="2665" y="1276" width="105" height="39" as="geometry" />
        </mxCell>
        <mxCell id="YC21IxaJlrMR5ol1vRR9-23" value="j = 0..n-1" style="shape=hexagon;perimeter=hexagonPerimeter2;fixedSize=1;strokeWidth=2;whiteSpace=wrap;" vertex="1" parent="1">
          <mxGeometry x="2540" y="1439" width="102" height="39" as="geometry" />
        </mxCell>
        <mxCell id="YC21IxaJlrMR5ol1vRR9-24" value="result" style="shape=parallelogram;perimeter=parallelogramPerimeter;fixedSize=1;strokeWidth=2;whiteSpace=wrap;" vertex="1" parent="1">
          <mxGeometry x="2719" y="1439" width="95" height="39" as="geometry" />
        </mxCell>
        <mxCell id="YC21IxaJlrMR5ol1vRR9-25" value="l = 0..k-1" style="shape=hexagon;perimeter=hexagonPerimeter2;fixedSize=1;strokeWidth=2;whiteSpace=wrap;" vertex="1" parent="1">
          <mxGeometry x="2476" y="1651" width="100" height="39" as="geometry" />
        </mxCell>
        <mxCell id="YC21IxaJlrMR5ol1vRR9-27" value="result += a * b" style="whiteSpace=wrap;strokeWidth=2;" vertex="1" parent="1">
          <mxGeometry x="2382" y="1844" width="260" height="78" as="geometry" />
        </mxCell>
        <mxCell id="YC21IxaJlrMR5ol1vRR9-29" value="m = len(matrix)" style="whiteSpace=wrap;strokeWidth=2;" vertex="1" parent="1">
          <mxGeometry x="1724" y="599" width="172" height="54" as="geometry" />
        </mxCell>
        <mxCell id="YC21IxaJlrMR5ol1vRR9-183" style="edgeStyle=orthogonalEdgeStyle;rounded=0;orthogonalLoop=1;jettySize=auto;html=1;entryX=1;entryY=0.75;entryDx=0;entryDy=0;" edge="1" parent="1" source="YC21IxaJlrMR5ol1vRR9-30" target="YC21IxaJlrMR5ol1vRR9-43">
          <mxGeometry relative="1" as="geometry" />
        </mxCell>
        <mxCell id="YC21IxaJlrMR5ol1vRR9-30" value="XtY = multiply_matrix_vector(Xt, y)" style="whiteSpace=wrap;strokeWidth=2;" vertex="1" parent="1">
          <mxGeometry x="1670" y="410" width="260" height="102" as="geometry" />
        </mxCell>
        <mxCell id="YC21IxaJlrMR5ol1vRR9-31" value="n = len(matrix )" style="whiteSpace=wrap;strokeWidth=2;" vertex="1" parent="1">
          <mxGeometry x="1716" y="775" width="188" height="54" as="geometry" />
        </mxCell>
        <mxCell id="YC21IxaJlrMR5ol1vRR9-32" value="result = [0.0]*m" style="whiteSpace=wrap;strokeWidth=2;" vertex="1" parent="1">
          <mxGeometry x="1723" y="928" width="173" height="54" as="geometry" />
        </mxCell>
        <mxCell id="YC21IxaJlrMR5ol1vRR9-33" value="i = 0..m-1" style="shape=hexagon;perimeter=hexagonPerimeter2;fixedSize=1;strokeWidth=2;whiteSpace=wrap;" vertex="1" parent="1">
          <mxGeometry x="1757.5" y="1125" width="105" height="39" as="geometry" />
        </mxCell>
        <mxCell id="YC21IxaJlrMR5ol1vRR9-34" value="j = 0..n-1" style="shape=hexagon;perimeter=hexagonPerimeter2;fixedSize=1;strokeWidth=2;whiteSpace=wrap;" vertex="1" parent="1">
          <mxGeometry x="1685" y="1288" width="102" height="39" as="geometry" />
        </mxCell>
        <mxCell id="YC21IxaJlrMR5ol1vRR9-35" value="result" style="shape=parallelogram;perimeter=parallelogramPerimeter;fixedSize=1;strokeWidth=2;whiteSpace=wrap;" vertex="1" parent="1">
          <mxGeometry x="1854" y="1288" width="95" height="39" as="geometry" />
        </mxCell>
        <mxCell id="YC21IxaJlrMR5ol1vRR9-36" value="result += matrix * vector" style="whiteSpace=wrap;strokeWidth=2;" vertex="1" parent="1">
          <mxGeometry x="1635" y="1480" width="260" height="78" as="geometry" />
        </mxCell>
        <mxCell id="YC21IxaJlrMR5ol1vRR9-38" value="M = []&#xa;length = len(A)" style="whiteSpace=wrap;strokeWidth=2;" vertex="1" parent="1">
          <mxGeometry x="206" y="737" width="167" height="78" as="geometry" />
        </mxCell>
        <mxCell id="YC21IxaJlrMR5ol1vRR9-39" value="i = 0..length-1" style="shape=hexagon;perimeter=hexagonPerimeter2;fixedSize=1;strokeWidth=2;whiteSpace=wrap;" vertex="1" parent="1">
          <mxGeometry x="217" y="928" width="137" height="39" as="geometry" />
        </mxCell>
        <mxCell id="YC21IxaJlrMR5ol1vRR9-40" value="row = A&#xa;b_i = b&#xa;new_row = row.copy() + [b_i]" style="whiteSpace=wrap;strokeWidth=2;" vertex="1" parent="1">
          <mxGeometry x="135" y="1065" width="260" height="126" as="geometry" />
        </mxCell>
        <mxCell id="YC21IxaJlrMR5ol1vRR9-41" value="M.append(new_row)" style="whiteSpace=wrap;strokeWidth=2;" vertex="1" parent="1">
          <mxGeometry x="244" y="1313" width="206" height="54" as="geometry" />
        </mxCell>
        <mxCell id="YC21IxaJlrMR5ol1vRR9-42" value="n = len(A)" style="whiteSpace=wrap;strokeWidth=2;" vertex="1" parent="1">
          <mxGeometry x="224" y="596" width="130" height="54" as="geometry" />
        </mxCell>
        <mxCell id="YC21IxaJlrMR5ol1vRR9-190" style="edgeStyle=orthogonalEdgeStyle;rounded=0;orthogonalLoop=1;jettySize=auto;html=1;" edge="1" parent="1" source="YC21IxaJlrMR5ol1vRR9-43" target="YC21IxaJlrMR5ol1vRR9-61">
          <mxGeometry relative="1" as="geometry" />
        </mxCell>
        <mxCell id="YC21IxaJlrMR5ol1vRR9-43" value="solve_linear_system(XtX, XtY)" style="whiteSpace=wrap;strokeWidth=2;" vertex="1" parent="1">
          <mxGeometry x="169" y="408" width="260" height="78" as="geometry" />
        </mxCell>
        <mxCell id="YC21IxaJlrMR5ol1vRR9-44" value="i = 0..n-1" style="shape=hexagon;perimeter=hexagonPerimeter2;fixedSize=1;strokeWidth=2;whiteSpace=wrap;" vertex="1" parent="1">
          <mxGeometry x="798" y="1109" width="100" height="39" as="geometry" />
        </mxCell>
        <mxCell id="YC21IxaJlrMR5ol1vRR9-45" value="max_row = max(range(i, n), key=lambda r: abs(M ))" style="whiteSpace=wrap;strokeWidth=2;" vertex="1" parent="1">
          <mxGeometry x="544" y="1289" width="260" height="102" as="geometry" />
        </mxCell>
        <mxCell id="YC21IxaJlrMR5ol1vRR9-46" value="M , M          = M          , M" style="whiteSpace=wrap;strokeWidth=2;" vertex="1" parent="1">
          <mxGeometry x="543.5" y="1512" width="260" height="78" as="geometry" />
        </mxCell>
        <mxCell id="YC21IxaJlrMR5ol1vRR9-47" value="pivot = M" style="whiteSpace=wrap;strokeWidth=2;" vertex="1" parent="1">
          <mxGeometry x="595" y="1690" width="158" height="54" as="geometry" />
        </mxCell>
        <mxCell id="YC21IxaJlrMR5ol1vRR9-48" value="j = i..n" style="shape=hexagon;perimeter=hexagonPerimeter2;fixedSize=1;strokeWidth=2;whiteSpace=wrap;" vertex="1" parent="1">
          <mxGeometry x="632" y="1794" width="83" height="39" as="geometry" />
        </mxCell>
        <mxCell id="YC21IxaJlrMR5ol1vRR9-49" value="M  /= pivot" style="whiteSpace=wrap;strokeWidth=2;" vertex="1" parent="1">
          <mxGeometry x="323" y="1906" width="168" height="54" as="geometry" />
        </mxCell>
        <mxCell id="YC21IxaJlrMR5ol1vRR9-50" value="k = i+1..n-1" style="shape=hexagon;perimeter=hexagonPerimeter2;fixedSize=1;strokeWidth=2;whiteSpace=wrap;" vertex="1" parent="1">
          <mxGeometry x="740" y="1914" width="117" height="39" as="geometry" />
        </mxCell>
        <mxCell id="YC21IxaJlrMR5ol1vRR9-51" value="factor = M" style="whiteSpace=wrap;strokeWidth=2;" vertex="1" parent="1">
          <mxGeometry x="460" y="2000" width="169" height="54" as="geometry" />
        </mxCell>
        <mxCell id="YC21IxaJlrMR5ol1vRR9-52" value="j = i..n" style="shape=hexagon;perimeter=hexagonPerimeter2;fixedSize=1;strokeWidth=2;whiteSpace=wrap;" vertex="1" parent="1">
          <mxGeometry x="503" y="2104" width="83" height="39" as="geometry" />
        </mxCell>
        <mxCell id="YC21IxaJlrMR5ol1vRR9-53" value="M    -= factor * M" style="whiteSpace=wrap;strokeWidth=2;" vertex="1" parent="1">
          <mxGeometry x="426" y="2187" width="237" height="54" as="geometry" />
        </mxCell>
        <mxCell id="YC21IxaJlrMR5ol1vRR9-56" value="x = [0.0]*n" style="whiteSpace=wrap;strokeWidth=2;" vertex="1" parent="1">
          <mxGeometry x="888" y="1313" width="135" height="54" as="geometry" />
        </mxCell>
        <mxCell id="YC21IxaJlrMR5ol1vRR9-57" value="i = n-1..0" style="shape=hexagon;perimeter=hexagonPerimeter2;fixedSize=1;strokeWidth=2;whiteSpace=wrap;" vertex="1" parent="1">
          <mxGeometry x="909" y="1499" width="100" height="39" as="geometry" />
        </mxCell>
        <mxCell id="YC21IxaJlrMR5ol1vRR9-58" value="sum_val = 0.0" style="whiteSpace=wrap;strokeWidth=2;" vertex="1" parent="1">
          <mxGeometry x="959" y="1690" width="159" height="54" as="geometry" />
        </mxCell>
        <mxCell id="YC21IxaJlrMR5ol1vRR9-59" value="x" style="shape=parallelogram;perimeter=parallelogramPerimeter;fixedSize=1;strokeWidth=2;whiteSpace=wrap;" vertex="1" parent="1">
          <mxGeometry x="847" y="1698" width="62" height="39" as="geometry" />
        </mxCell>
        <mxCell id="YC21IxaJlrMR5ol1vRR9-60" value="Начало" style="rounded=1;whiteSpace=wrap;arcSize=50;strokeWidth=2;" vertex="1" parent="1">
          <mxGeometry x="3221.5" y="270" width="78" height="39" as="geometry" />
        </mxCell>
        <mxCell id="YC21IxaJlrMR5ol1vRR9-61" value="Конец" style="rounded=1;whiteSpace=wrap;arcSize=50;strokeWidth=2;" vertex="1" parent="1">
          <mxGeometry x="-10" y="427.5" width="70" height="39" as="geometry" />
        </mxCell>
        <mxCell id="YC21IxaJlrMR5ol1vRR9-62" value="j = i+1..n-1" style="shape=hexagon;perimeter=hexagonPerimeter2;fixedSize=1;strokeWidth=2;whiteSpace=wrap;" vertex="1" parent="1">
          <mxGeometry x="1126" y="2010" width="115" height="39" as="geometry" />
        </mxCell>
        <mxCell id="YC21IxaJlrMR5ol1vRR9-63" value="sum_val += M * x" style="whiteSpace=wrap;strokeWidth=2;" vertex="1" parent="1">
          <mxGeometry x="990" y="2122" width="231" height="54" as="geometry" />
        </mxCell>
        <mxCell id="YC21IxaJlrMR5ol1vRR9-64" value="x = M - sum_val" style="whiteSpace=wrap;strokeWidth=2;" vertex="1" parent="1">
          <mxGeometry x="1271" y="2122" width="224" height="54" as="geometry" />
        </mxCell>
        <mxCell id="YC21IxaJlrMR5ol1vRR9-65" value="" style="curved=1;startArrow=none;endArrow=block;exitX=0.5;exitY=1;entryX=0.5;entryY=-0.01;rounded=0;" edge="1" parent="1" source="YC21IxaJlrMR5ol1vRR9-8" target="YC21IxaJlrMR5ol1vRR9-9">
          <mxGeometry relative="1" as="geometry">
            <Array as="points" />
          </mxGeometry>
        </mxCell>
        <mxCell id="YC21IxaJlrMR5ol1vRR9-66" value="Да" style="curved=1;startArrow=none;endArrow=block;exitX=0.14;exitY=0.99;entryX=0.5;entryY=0;rounded=0;" edge="1" parent="1" source="YC21IxaJlrMR5ol1vRR9-9" target="YC21IxaJlrMR5ol1vRR9-10">
          <mxGeometry relative="1" as="geometry">
            <Array as="points">
              <mxPoint x="3070" y="985" />
            </Array>
          </mxGeometry>
        </mxCell>
        <mxCell id="YC21IxaJlrMR5ol1vRR9-67" value="" style="curved=1;startArrow=none;endArrow=block;exitX=0.5;exitY=1;entryX=0.12;entryY=0;rounded=0;" edge="1" parent="1" source="YC21IxaJlrMR5ol1vRR9-10" target="YC21IxaJlrMR5ol1vRR9-11">
          <mxGeometry relative="1" as="geometry">
            <Array as="points">
              <mxPoint x="3070" y="1174" />
            </Array>
          </mxGeometry>
        </mxCell>
        <mxCell id="YC21IxaJlrMR5ol1vRR9-68" value="" style="curved=1;startArrow=none;endArrow=block;exitX=0.62;exitY=0;entryX=0.856;entryY=0.935;rounded=0;entryDx=0;entryDy=0;entryPerimeter=0;" edge="1" parent="1" source="YC21IxaJlrMR5ol1vRR9-11" target="YC21IxaJlrMR5ol1vRR9-9">
          <mxGeometry relative="1" as="geometry">
            <Array as="points">
              <mxPoint x="3385" y="1174" />
              <mxPoint x="3385" y="985" />
            </Array>
          </mxGeometry>
        </mxCell>
        <mxCell id="YC21IxaJlrMR5ol1vRR9-69" value="Нет" style="curved=1;startArrow=none;endArrow=block;exitX=0.57;exitY=0.994;entryX=0.5;entryY=-0.01;rounded=0;exitDx=0;exitDy=0;exitPerimeter=0;" edge="1" parent="1" source="YC21IxaJlrMR5ol1vRR9-9" target="YC21IxaJlrMR5ol1vRR9-12">
          <mxGeometry relative="1" as="geometry">
            <Array as="points">
              <mxPoint x="3284" y="985" />
            </Array>
          </mxGeometry>
        </mxCell>
        <mxCell id="YC21IxaJlrMR5ol1vRR9-70" value="" style="curved=1;startArrow=none;endArrow=block;exitX=0.5;exitY=1;entryX=0.5;entryY=-0.01;rounded=0;" edge="1" parent="1" source="YC21IxaJlrMR5ol1vRR9-15" target="YC21IxaJlrMR5ol1vRR9-16">
          <mxGeometry relative="1" as="geometry">
            <Array as="points" />
          </mxGeometry>
        </mxCell>
        <mxCell id="YC21IxaJlrMR5ol1vRR9-71" value="Да" style="curved=1;startArrow=none;endArrow=block;exitX=0.457;exitY=0.94;entryX=0.5;entryY=0;rounded=0;exitDx=0;exitDy=0;exitPerimeter=0;" edge="1" parent="1" source="YC21IxaJlrMR5ol1vRR9-16" target="YC21IxaJlrMR5ol1vRR9-17">
          <mxGeometry relative="1" as="geometry">
            <Array as="points">
              <mxPoint x="2278" y="1170" />
            </Array>
          </mxGeometry>
        </mxCell>
        <mxCell id="YC21IxaJlrMR5ol1vRR9-72" value="" style="curved=1;startArrow=none;endArrow=block;exitX=0.5;exitY=1;entryX=0.42;entryY=0;rounded=0;" edge="1" parent="1" source="YC21IxaJlrMR5ol1vRR9-17" target="YC21IxaJlrMR5ol1vRR9-18">
          <mxGeometry relative="1" as="geometry">
            <Array as="points">
              <mxPoint x="2278" y="1359" />
            </Array>
          </mxGeometry>
        </mxCell>
        <mxCell id="YC21IxaJlrMR5ol1vRR9-73" value="" style="curved=1;startArrow=none;endArrow=block;exitX=0.58;exitY=0;entryX=0.854;entryY=0.812;rounded=0;entryDx=0;entryDy=0;entryPerimeter=0;" edge="1" parent="1" source="YC21IxaJlrMR5ol1vRR9-18" target="YC21IxaJlrMR5ol1vRR9-16">
          <mxGeometry relative="1" as="geometry">
            <Array as="points">
              <mxPoint x="2395" y="1359" />
              <mxPoint x="2395" y="1170" />
            </Array>
          </mxGeometry>
        </mxCell>
        <mxCell id="YC21IxaJlrMR5ol1vRR9-74" value="" style="curved=1;startArrow=none;endArrow=block;exitX=0.5;exitY=1;entryX=0.5;entryY=0;rounded=0;" edge="1" parent="1" source="YC21IxaJlrMR5ol1vRR9-29" target="YC21IxaJlrMR5ol1vRR9-31">
          <mxGeometry relative="1" as="geometry">
            <Array as="points" />
          </mxGeometry>
        </mxCell>
        <mxCell id="YC21IxaJlrMR5ol1vRR9-75" value="" style="curved=1;startArrow=none;endArrow=block;exitX=0.5;exitY=1;entryX=0.5;entryY=0;rounded=0;" edge="1" parent="1" source="YC21IxaJlrMR5ol1vRR9-31" target="YC21IxaJlrMR5ol1vRR9-32">
          <mxGeometry relative="1" as="geometry">
            <Array as="points" />
          </mxGeometry>
        </mxCell>
        <mxCell id="YC21IxaJlrMR5ol1vRR9-76" value="" style="curved=1;startArrow=none;endArrow=block;exitX=0.5;exitY=1;entryX=0.5;entryY=-0.01;rounded=0;" edge="1" parent="1" source="YC21IxaJlrMR5ol1vRR9-32" target="YC21IxaJlrMR5ol1vRR9-33">
          <mxGeometry relative="1" as="geometry">
            <Array as="points" />
          </mxGeometry>
        </mxCell>
        <mxCell id="YC21IxaJlrMR5ol1vRR9-77" value="" style="curved=1;startArrow=none;endArrow=block;exitX=0.5;exitY=1;entryX=0.5;entryY=-0.01;rounded=0;" edge="1" parent="1" source="YC21IxaJlrMR5ol1vRR9-38" target="YC21IxaJlrMR5ol1vRR9-39">
          <mxGeometry relative="1" as="geometry">
            <Array as="points" />
          </mxGeometry>
        </mxCell>
        <mxCell id="YC21IxaJlrMR5ol1vRR9-78" value="Да" style="curved=1;startArrow=none;endArrow=block;exitX=0.465;exitY=0.988;entryX=0.5;entryY=0;rounded=0;exitDx=0;exitDy=0;exitPerimeter=0;" edge="1" parent="1" source="YC21IxaJlrMR5ol1vRR9-39" target="YC21IxaJlrMR5ol1vRR9-40">
          <mxGeometry relative="1" as="geometry">
            <Array as="points">
              <mxPoint x="265" y="1029" />
            </Array>
          </mxGeometry>
        </mxCell>
        <mxCell id="YC21IxaJlrMR5ol1vRR9-79" value="" style="curved=1;startArrow=none;endArrow=block;exitX=0.5;exitY=1;entryX=0.38;entryY=0;rounded=0;" edge="1" parent="1" source="YC21IxaJlrMR5ol1vRR9-40" target="YC21IxaJlrMR5ol1vRR9-41">
          <mxGeometry relative="1" as="geometry">
            <Array as="points">
              <mxPoint x="265" y="1253" />
            </Array>
          </mxGeometry>
        </mxCell>
        <mxCell id="YC21IxaJlrMR5ol1vRR9-80" value="" style="curved=1;startArrow=none;endArrow=block;exitX=0.63;exitY=0;entryX=0.853;entryY=0.949;rounded=0;entryDx=0;entryDy=0;entryPerimeter=0;" edge="1" parent="1" source="YC21IxaJlrMR5ol1vRR9-41" target="YC21IxaJlrMR5ol1vRR9-39">
          <mxGeometry relative="1" as="geometry">
            <Array as="points">
              <mxPoint x="430" y="1253" />
              <mxPoint x="430" y="1029" />
            </Array>
          </mxGeometry>
        </mxCell>
        <mxCell id="YC21IxaJlrMR5ol1vRR9-81" value="" style="curved=1;startArrow=none;endArrow=block;exitX=0.5;exitY=1;entryX=0.5;entryY=0;rounded=0;" edge="1" parent="1" target="YC21IxaJlrMR5ol1vRR9-14">
          <mxGeometry relative="1" as="geometry">
            <Array as="points" />
            <mxPoint x="3261" y="311.0000000000002" as="sourcePoint" />
          </mxGeometry>
        </mxCell>
        <mxCell id="YC21IxaJlrMR5ol1vRR9-82" value="" style="curved=1;startArrow=none;endArrow=block;exitX=0;exitY=0.83;entryX=1;entryY=0.35;rounded=0;" edge="1" parent="1" source="YC21IxaJlrMR5ol1vRR9-14" target="YC21IxaJlrMR5ol1vRR9-20">
          <mxGeometry relative="1" as="geometry">
            <Array as="points">
              <mxPoint x="3030" y="420" />
              <mxPoint x="2830" y="410" />
            </Array>
          </mxGeometry>
        </mxCell>
        <mxCell id="YC21IxaJlrMR5ol1vRR9-83" value="" style="curved=1;startArrow=none;endArrow=block;exitX=0.5;exitY=1;entryX=0.5;entryY=0;rounded=0;" edge="1" parent="1" source="YC21IxaJlrMR5ol1vRR9-14" target="YC21IxaJlrMR5ol1vRR9-13">
          <mxGeometry relative="1" as="geometry">
            <Array as="points" />
          </mxGeometry>
        </mxCell>
        <mxCell id="YC21IxaJlrMR5ol1vRR9-85" value="" style="curved=1;startArrow=none;endArrow=block;exitX=0.52;exitY=1;entryX=0.5;entryY=0;rounded=0;" edge="1" parent="1" source="YC21IxaJlrMR5ol1vRR9-20" target="YC21IxaJlrMR5ol1vRR9-19">
          <mxGeometry relative="1" as="geometry">
            <Array as="points">
              <mxPoint x="2302" y="486" />
            </Array>
          </mxGeometry>
        </mxCell>
        <mxCell id="YC21IxaJlrMR5ol1vRR9-87" value="" style="curved=1;startArrow=none;endArrow=block;exitX=0.52;exitY=1;entryX=0.5;entryY=0;rounded=0;" edge="1" parent="1" source="YC21IxaJlrMR5ol1vRR9-30" target="YC21IxaJlrMR5ol1vRR9-29">
          <mxGeometry relative="1" as="geometry">
            <Array as="points">
              <mxPoint x="1810" y="537" />
            </Array>
          </mxGeometry>
        </mxCell>
        <mxCell id="YC21IxaJlrMR5ol1vRR9-88" value="" style="curved=1;startArrow=none;endArrow=block;exitX=0.5;exitY=1;entryX=0.5;entryY=0;rounded=0;" edge="1" parent="1" source="YC21IxaJlrMR5ol1vRR9-19" target="YC21IxaJlrMR5ol1vRR9-21">
          <mxGeometry relative="1" as="geometry">
            <Array as="points" />
          </mxGeometry>
        </mxCell>
        <mxCell id="YC21IxaJlrMR5ol1vRR9-89" value="Да" style="curved=1;startArrow=none;endArrow=block;exitX=0.13;exitY=0.99;entryX=0.5;entryY=-0.01;rounded=0;" edge="1" parent="1" source="YC21IxaJlrMR5ol1vRR9-22" target="YC21IxaJlrMR5ol1vRR9-23">
          <mxGeometry relative="1" as="geometry">
            <Array as="points">
              <mxPoint x="2591" y="1359" />
            </Array>
          </mxGeometry>
        </mxCell>
        <mxCell id="YC21IxaJlrMR5ol1vRR9-90" value="Нет" style="curved=1;startArrow=none;endArrow=block;exitX=0.709;exitY=0.999;entryX=0.5;entryY=-0.01;rounded=0;exitDx=0;exitDy=0;exitPerimeter=0;" edge="1" parent="1" source="YC21IxaJlrMR5ol1vRR9-22" target="YC21IxaJlrMR5ol1vRR9-24">
          <mxGeometry relative="1" as="geometry">
            <Array as="points">
              <mxPoint x="2766" y="1359" />
            </Array>
          </mxGeometry>
        </mxCell>
        <mxCell id="YC21IxaJlrMR5ol1vRR9-91" value="Да" style="curved=1;startArrow=none;endArrow=block;exitX=0.294;exitY=0.985;entryX=0.5;entryY=-0.01;rounded=0;exitDx=0;exitDy=0;exitPerimeter=0;" edge="1" parent="1" source="YC21IxaJlrMR5ol1vRR9-23" target="YC21IxaJlrMR5ol1vRR9-25">
          <mxGeometry relative="1" as="geometry">
            <Array as="points">
              <mxPoint x="2526" y="1546" />
            </Array>
          </mxGeometry>
        </mxCell>
        <mxCell id="YC21IxaJlrMR5ol1vRR9-92" value="" style="curved=1;startArrow=none;endArrow=block;exitX=0.663;exitY=1.015;rounded=0;exitDx=0;exitDy=0;exitPerimeter=0;" edge="1" parent="1" source="YC21IxaJlrMR5ol1vRR9-23" target="YC21IxaJlrMR5ol1vRR9-22">
          <mxGeometry relative="1" as="geometry">
            <Array as="points">
              <mxPoint x="2691" y="1546" />
            </Array>
            <mxPoint x="2691" y="1655" as="targetPoint" />
          </mxGeometry>
        </mxCell>
        <mxCell id="YC21IxaJlrMR5ol1vRR9-189" value="Нет" style="edgeLabel;html=1;align=center;verticalAlign=middle;resizable=0;points=[];" vertex="1" connectable="0" parent="YC21IxaJlrMR5ol1vRR9-92">
          <mxGeometry x="0.4208" y="6" relative="1" as="geometry">
            <mxPoint as="offset" />
          </mxGeometry>
        </mxCell>
        <mxCell id="YC21IxaJlrMR5ol1vRR9-93" value="Да" style="curved=1;startArrow=none;endArrow=block;exitX=0;exitY=0.93;entryX=0.09;entryY=0;rounded=0;" edge="1" parent="1" source="YC21IxaJlrMR5ol1vRR9-25" target="YC21IxaJlrMR5ol1vRR9-27">
          <mxGeometry relative="1" as="geometry">
            <Array as="points">
              <mxPoint x="2307" y="1746" />
              <mxPoint x="2307" y="1808" />
            </Array>
          </mxGeometry>
        </mxCell>
        <mxCell id="YC21IxaJlrMR5ol1vRR9-94" value="" style="curved=1;startArrow=none;endArrow=block;exitX=0.81;exitY=0;entryX=0.86;entryY=0.99;rounded=0;" edge="1" parent="1" source="YC21IxaJlrMR5ol1vRR9-27" target="YC21IxaJlrMR5ol1vRR9-25">
          <mxGeometry relative="1" as="geometry">
            <Array as="points">
              <mxPoint x="2666" y="1808" />
              <mxPoint x="2666" y="1746" />
            </Array>
          </mxGeometry>
        </mxCell>
        <mxCell id="YC21IxaJlrMR5ol1vRR9-95" value="Нет" style="curved=1;startArrow=none;endArrow=block;exitX=0.817;exitY=0.034;entryX=0.549;entryY=0.932;rounded=0;entryDx=0;entryDy=0;entryPerimeter=0;exitDx=0;exitDy=0;exitPerimeter=0;" edge="1" parent="1" source="YC21IxaJlrMR5ol1vRR9-25" target="YC21IxaJlrMR5ol1vRR9-23">
          <mxGeometry relative="1" as="geometry">
            <Array as="points">
              <mxPoint x="2570" y="1620" />
              <mxPoint x="2580" y="1570" />
            </Array>
            <mxPoint x="2698" y="1868" as="targetPoint" />
          </mxGeometry>
        </mxCell>
        <mxCell id="YC21IxaJlrMR5ol1vRR9-98" value="Да" style="curved=1;startArrow=none;endArrow=block;exitX=0.375;exitY=1;entryX=0.5;entryY=-0.01;rounded=0;exitDx=0;exitDy=0;" edge="1" parent="1" source="YC21IxaJlrMR5ol1vRR9-33" target="YC21IxaJlrMR5ol1vRR9-34">
          <mxGeometry relative="1" as="geometry">
            <Array as="points">
              <mxPoint x="1735" y="1208" />
            </Array>
          </mxGeometry>
        </mxCell>
        <mxCell id="YC21IxaJlrMR5ol1vRR9-99" value="Нет" style="curved=1;startArrow=none;endArrow=block;entryX=0.5;entryY=-0.01;rounded=0;" edge="1" parent="1" target="YC21IxaJlrMR5ol1vRR9-35">
          <mxGeometry relative="1" as="geometry">
            <Array as="points">
              <mxPoint x="1901" y="1208" />
            </Array>
            <mxPoint x="1830" y="1160" as="sourcePoint" />
          </mxGeometry>
        </mxCell>
        <mxCell id="YC21IxaJlrMR5ol1vRR9-100" value="Да" style="curved=1;startArrow=none;endArrow=block;exitX=0.375;exitY=1;entryX=0.39;entryY=0;rounded=0;exitDx=0;exitDy=0;" edge="1" parent="1" source="YC21IxaJlrMR5ol1vRR9-34" target="YC21IxaJlrMR5ol1vRR9-36">
          <mxGeometry relative="1" as="geometry">
            <Array as="points">
              <mxPoint x="1699" y="1395" />
              <mxPoint x="1699" y="1432" />
            </Array>
          </mxGeometry>
        </mxCell>
        <mxCell id="YC21IxaJlrMR5ol1vRR9-101" value="" style="curved=1;startArrow=none;endArrow=block;exitX=0.73;exitY=0;entryX=0.85;entryY=0.99;rounded=0;" edge="1" parent="1" source="YC21IxaJlrMR5ol1vRR9-36" target="YC21IxaJlrMR5ol1vRR9-34">
          <mxGeometry relative="1" as="geometry">
            <Array as="points">
              <mxPoint x="1898" y="1432" />
              <mxPoint x="1898" y="1395" />
            </Array>
          </mxGeometry>
        </mxCell>
        <mxCell id="YC21IxaJlrMR5ol1vRR9-102" value="Нет" style="curved=1;startArrow=none;endArrow=block;exitX=0.841;exitY=0.166;entryX=0.625;entryY=1;rounded=0;exitDx=0;exitDy=0;exitPerimeter=0;entryDx=0;entryDy=0;" edge="1" parent="1" source="YC21IxaJlrMR5ol1vRR9-34" target="YC21IxaJlrMR5ol1vRR9-33">
          <mxGeometry relative="1" as="geometry">
            <Array as="points">
              <mxPoint x="1800" y="1270" />
            </Array>
            <mxPoint x="1950.4000000000005" y="1504" as="targetPoint" />
          </mxGeometry>
        </mxCell>
        <mxCell id="YC21IxaJlrMR5ol1vRR9-104" value="" style="curved=1;startArrow=none;endArrow=block;exitX=0.48;exitY=1;entryX=0.5;entryY=0;rounded=0;" edge="1" parent="1" source="YC21IxaJlrMR5ol1vRR9-43" target="YC21IxaJlrMR5ol1vRR9-42">
          <mxGeometry relative="1" as="geometry">
            <Array as="points">
              <mxPoint x="289" y="523" />
            </Array>
          </mxGeometry>
        </mxCell>
        <mxCell id="YC21IxaJlrMR5ol1vRR9-106" value="Да" style="curved=1;startArrow=none;endArrow=block;exitX=0.12;exitY=0.99;entryX=0.5;entryY=0;rounded=0;" edge="1" parent="1" source="YC21IxaJlrMR5ol1vRR9-44" target="YC21IxaJlrMR5ol1vRR9-45">
          <mxGeometry relative="1" as="geometry">
            <Array as="points">
              <mxPoint x="674" y="1216" />
            </Array>
          </mxGeometry>
        </mxCell>
        <mxCell id="YC21IxaJlrMR5ol1vRR9-107" value="" style="curved=1;startArrow=none;endArrow=block;exitX=0.5;exitY=1;entryX=0.5;entryY=0;rounded=0;" edge="1" parent="1" source="YC21IxaJlrMR5ol1vRR9-45" target="YC21IxaJlrMR5ol1vRR9-46">
          <mxGeometry relative="1" as="geometry">
            <Array as="points" />
          </mxGeometry>
        </mxCell>
        <mxCell id="YC21IxaJlrMR5ol1vRR9-108" value="" style="curved=1;startArrow=none;endArrow=block;exitX=0.5;exitY=1;entryX=0.5;entryY=0;rounded=0;" edge="1" parent="1" source="YC21IxaJlrMR5ol1vRR9-46" target="YC21IxaJlrMR5ol1vRR9-47">
          <mxGeometry relative="1" as="geometry">
            <Array as="points" />
          </mxGeometry>
        </mxCell>
        <mxCell id="YC21IxaJlrMR5ol1vRR9-109" value="" style="curved=1;startArrow=none;endArrow=block;exitX=0.5;exitY=1;entryX=0.51;entryY=0;rounded=0;" edge="1" parent="1" source="YC21IxaJlrMR5ol1vRR9-47" target="YC21IxaJlrMR5ol1vRR9-48">
          <mxGeometry relative="1" as="geometry">
            <Array as="points" />
          </mxGeometry>
        </mxCell>
        <mxCell id="YC21IxaJlrMR5ol1vRR9-110" value="Да" style="curved=1;startArrow=none;endArrow=block;exitX=0;exitY=0.72;entryX=0.5;entryY=0;rounded=0;" edge="1" parent="1" source="YC21IxaJlrMR5ol1vRR9-48" target="YC21IxaJlrMR5ol1vRR9-49">
          <mxGeometry relative="1" as="geometry">
            <Array as="points">
              <mxPoint x="407" y="1870" />
            </Array>
          </mxGeometry>
        </mxCell>
        <mxCell id="YC21IxaJlrMR5ol1vRR9-111" value="Нет" style="curved=1;startArrow=none;endArrow=block;exitX=1.01;exitY=0.98;entryX=0.5;entryY=-0.01;rounded=0;" edge="1" parent="1" source="YC21IxaJlrMR5ol1vRR9-48" target="YC21IxaJlrMR5ol1vRR9-50">
          <mxGeometry relative="1" as="geometry">
            <Array as="points">
              <mxPoint x="798" y="1870" />
            </Array>
          </mxGeometry>
        </mxCell>
        <mxCell id="YC21IxaJlrMR5ol1vRR9-112" value="Да" style="curved=1;startArrow=none;endArrow=block;exitX=0;exitY=0.84;entryX=0.5;entryY=0;rounded=0;" edge="1" parent="1" source="YC21IxaJlrMR5ol1vRR9-50" target="YC21IxaJlrMR5ol1vRR9-51">
          <mxGeometry relative="1" as="geometry">
            <Array as="points">
              <mxPoint x="531" y="1997" />
            </Array>
          </mxGeometry>
        </mxCell>
        <mxCell id="YC21IxaJlrMR5ol1vRR9-113" value="" style="curved=1;startArrow=none;endArrow=block;exitX=0.5;exitY=1;entryX=0.5;entryY=0;rounded=0;" edge="1" parent="1" source="YC21IxaJlrMR5ol1vRR9-51" target="YC21IxaJlrMR5ol1vRR9-52">
          <mxGeometry relative="1" as="geometry">
            <Array as="points" />
          </mxGeometry>
        </mxCell>
        <mxCell id="YC21IxaJlrMR5ol1vRR9-114" value="Да" style="curved=1;startArrow=none;endArrow=block;exitX=-0.01;exitY=0.95;entryX=0.39;entryY=0;rounded=0;" edge="1" parent="1" source="YC21IxaJlrMR5ol1vRR9-52" target="YC21IxaJlrMR5ol1vRR9-53">
          <mxGeometry relative="1" as="geometry">
            <Array as="points">
              <mxPoint x="410" y="2180" />
            </Array>
          </mxGeometry>
        </mxCell>
        <mxCell id="YC21IxaJlrMR5ol1vRR9-115" value="" style="curved=1;startArrow=none;endArrow=block;exitX=0.87;exitY=0;entryX=1;entryY=0.94;rounded=0;" edge="1" parent="1" source="YC21IxaJlrMR5ol1vRR9-53" target="YC21IxaJlrMR5ol1vRR9-52">
          <mxGeometry relative="1" as="geometry">
            <Array as="points">
              <mxPoint x="679" y="2180" />
            </Array>
          </mxGeometry>
        </mxCell>
        <mxCell id="YC21IxaJlrMR5ol1vRR9-116" value="Нет" style="curved=1;startArrow=none;endArrow=block;exitX=1;exitY=0.25;entryX=0.375;entryY=1;rounded=0;entryDx=0;entryDy=0;exitDx=0;exitDy=0;" edge="1" parent="1" source="YC21IxaJlrMR5ol1vRR9-52" target="YC21IxaJlrMR5ol1vRR9-50">
          <mxGeometry relative="1" as="geometry">
            <Array as="points">
              <mxPoint x="610" y="2120" />
            </Array>
            <mxPoint x="809" y="2269.823529411765" as="targetPoint" />
          </mxGeometry>
        </mxCell>
        <mxCell id="YC21IxaJlrMR5ol1vRR9-118" value="Нет" style="curved=1;startArrow=none;endArrow=block;exitX=1;exitY=0.5;rounded=0;exitDx=0;exitDy=0;" edge="1" parent="1" source="YC21IxaJlrMR5ol1vRR9-50" target="YC21IxaJlrMR5ol1vRR9-44">
          <mxGeometry x="-0.2055" y="84" relative="1" as="geometry">
            <Array as="points">
              <mxPoint x="900" y="1930" />
              <mxPoint x="1430" y="1540" />
            </Array>
            <mxPoint x="888.5999999999999" y="2045" as="targetPoint" />
            <mxPoint y="1" as="offset" />
          </mxGeometry>
        </mxCell>
        <mxCell id="YC21IxaJlrMR5ol1vRR9-120" value="Нет" style="curved=1;startArrow=none;endArrow=block;exitX=0.642;exitY=1.012;entryX=0.5;entryY=0;rounded=0;exitDx=0;exitDy=0;exitPerimeter=0;" edge="1" parent="1" source="YC21IxaJlrMR5ol1vRR9-44" target="YC21IxaJlrMR5ol1vRR9-56">
          <mxGeometry relative="1" as="geometry">
            <Array as="points">
              <mxPoint x="956" y="1216" />
            </Array>
          </mxGeometry>
        </mxCell>
        <mxCell id="YC21IxaJlrMR5ol1vRR9-121" value="" style="curved=1;startArrow=none;endArrow=block;exitX=0.5;exitY=1;entryX=0.5;entryY=-0.01;rounded=0;" edge="1" parent="1" source="YC21IxaJlrMR5ol1vRR9-56" target="YC21IxaJlrMR5ol1vRR9-57">
          <mxGeometry relative="1" as="geometry">
            <Array as="points" />
          </mxGeometry>
        </mxCell>
        <mxCell id="YC21IxaJlrMR5ol1vRR9-122" value="" style="curved=1;startArrow=none;endArrow=block;exitX=0.5;exitY=1;entryX=0;entryY=0.32;rounded=0;" edge="1" parent="1" source="YC21IxaJlrMR5ol1vRR9-58" target="YC21IxaJlrMR5ol1vRR9-62">
          <mxGeometry relative="1" as="geometry">
            <Array as="points">
              <mxPoint x="1120" y="1920" />
            </Array>
          </mxGeometry>
        </mxCell>
        <mxCell id="YC21IxaJlrMR5ol1vRR9-123" value="Нет" style="curved=1;startArrow=none;endArrow=block;exitX=0.375;exitY=1;entryX=0.5;entryY=-0.01;rounded=0;exitDx=0;exitDy=0;" edge="1" parent="1" source="YC21IxaJlrMR5ol1vRR9-57" target="YC21IxaJlrMR5ol1vRR9-59">
          <mxGeometry relative="1" as="geometry">
            <Array as="points">
              <mxPoint x="878" y="1617" />
            </Array>
          </mxGeometry>
        </mxCell>
        <mxCell id="YC21IxaJlrMR5ol1vRR9-124" value="Нет" style="curved=1;startArrow=none;endArrow=block;exitX=0.66;exitY=0.991;entryX=0;entryY=0.26;rounded=0;exitDx=0;exitDy=0;exitPerimeter=0;" edge="1" parent="1" source="YC21IxaJlrMR5ol1vRR9-16" target="YC21IxaJlrMR5ol1vRR9-22">
          <mxGeometry relative="1" as="geometry">
            <Array as="points">
              <mxPoint x="2343" y="1170" />
              <mxPoint x="2390" y="1210" />
            </Array>
          </mxGeometry>
        </mxCell>
        <mxCell id="YC21IxaJlrMR5ol1vRR9-125" value="Нет" style="curved=1;startArrow=none;endArrow=block;exitX=0.651;exitY=0.939;entryX=0;entryY=0.24;rounded=0;exitDx=0;exitDy=0;exitPerimeter=0;" edge="1" parent="1" source="YC21IxaJlrMR5ol1vRR9-39" target="YC21IxaJlrMR5ol1vRR9-44">
          <mxGeometry relative="1" as="geometry">
            <Array as="points">
              <mxPoint x="322" y="1029" />
            </Array>
          </mxGeometry>
        </mxCell>
        <mxCell id="YC21IxaJlrMR5ol1vRR9-126" value="Да" style="curved=1;startArrow=none;endArrow=block;exitX=0.27;exitY=1;entryX=0.5;entryY=0;rounded=0;" edge="1" parent="1" source="YC21IxaJlrMR5ol1vRR9-62" target="YC21IxaJlrMR5ol1vRR9-63">
          <mxGeometry relative="1" as="geometry">
            <Array as="points">
              <mxPoint x="1106" y="2086" />
            </Array>
          </mxGeometry>
        </mxCell>
        <mxCell id="YC21IxaJlrMR5ol1vRR9-127" value="Нет" style="curved=1;startArrow=none;endArrow=block;exitX=1;exitY=0.91;entryX=0.5;entryY=0;rounded=0;" edge="1" parent="1" source="YC21IxaJlrMR5ol1vRR9-62" target="YC21IxaJlrMR5ol1vRR9-64">
          <mxGeometry relative="1" as="geometry">
            <Array as="points">
              <mxPoint x="1383" y="2086" />
            </Array>
          </mxGeometry>
        </mxCell>
        <mxCell id="YC21IxaJlrMR5ol1vRR9-128" value="Да" style="curved=1;startArrow=none;endArrow=block;entryX=0.5;entryY=0;rounded=0;exitX=0.716;exitY=0.916;exitDx=0;exitDy=0;exitPerimeter=0;" edge="1" parent="1" source="YC21IxaJlrMR5ol1vRR9-57" target="YC21IxaJlrMR5ol1vRR9-58">
          <mxGeometry relative="1" as="geometry">
            <Array as="points">
              <mxPoint x="1038" y="1617" />
            </Array>
            <mxPoint x="980" y="1560" as="sourcePoint" />
          </mxGeometry>
        </mxCell>
        <mxCell id="YC21IxaJlrMR5ol1vRR9-129" value="" style="curved=1;startArrow=none;endArrow=block;exitX=0.5;exitY=1;entryX=0.5;entryY=0;rounded=0;" edge="1" parent="1" source="YC21IxaJlrMR5ol1vRR9-13" target="YC21IxaJlrMR5ol1vRR9-8">
          <mxGeometry relative="1" as="geometry">
            <Array as="points" />
          </mxGeometry>
        </mxCell>
        <mxCell id="YC21IxaJlrMR5ol1vRR9-130" value="" style="curved=1;startArrow=none;endArrow=block;exitX=0.5;exitY=1;entryX=0.5;entryY=0;rounded=0;" edge="1" parent="1" source="YC21IxaJlrMR5ol1vRR9-21" target="YC21IxaJlrMR5ol1vRR9-15">
          <mxGeometry relative="1" as="geometry">
            <Array as="points" />
          </mxGeometry>
        </mxCell>
        <mxCell id="YC21IxaJlrMR5ol1vRR9-131" value="" style="curved=1;startArrow=none;endArrow=block;exitX=0.5;exitY=1;entryX=0.5;entryY=0;rounded=0;" edge="1" parent="1" source="YC21IxaJlrMR5ol1vRR9-42" target="YC21IxaJlrMR5ol1vRR9-38">
          <mxGeometry relative="1" as="geometry">
            <Array as="points" />
          </mxGeometry>
        </mxCell>
        <mxCell id="YC21IxaJlrMR5ol1vRR9-185" value="&lt;span style=&quot;color: rgb(0, 0, 0); font-family: Helvetica; font-size: 12px; font-style: normal; font-variant-ligatures: normal; font-variant-caps: normal; font-weight: 400; letter-spacing: normal; orphans: 2; text-align: center; text-indent: 0px; text-transform: none; widows: 2; word-spacing: 0px; -webkit-text-stroke-width: 0px; white-space: normal; background-color: rgb(236, 236, 236); text-decoration-thickness: initial; text-decoration-style: initial; text-decoration-color: initial; display: inline !important; float: none;&quot;&gt;solve_linear_system(A, b)&lt;/span&gt;" style="text;whiteSpace=wrap;html=1;" vertex="1" parent="1">
          <mxGeometry x="90" y="343" width="170" height="40" as="geometry" />
        </mxCell>
        <mxCell id="YC21IxaJlrMR5ol1vRR9-186" value="&lt;span style=&quot;color: rgb(0, 0, 0); font-family: Helvetica; font-size: 12px; font-style: normal; font-variant-ligatures: normal; font-variant-caps: normal; font-weight: 400; letter-spacing: normal; orphans: 2; text-align: center; text-indent: 0px; text-transform: none; widows: 2; word-spacing: 0px; -webkit-text-stroke-width: 0px; white-space: normal; background-color: rgb(236, 236, 236); text-decoration-thickness: initial; text-decoration-style: initial; text-decoration-color: initial; display: inline !important; float: none;&quot;&gt;multiply_matrix_vector(matrix, vector)&lt;/span&gt;" style="text;whiteSpace=wrap;html=1;" vertex="1" parent="1">
          <mxGeometry x="1600" y="326.5" width="230" height="40" as="geometry" />
        </mxCell>
        <mxCell id="YC21IxaJlrMR5ol1vRR9-187" value="&lt;span style=&quot;color: rgb(0, 0, 0); font-family: Helvetica; font-size: 12px; font-style: normal; font-variant-ligatures: normal; font-variant-caps: normal; font-weight: 400; letter-spacing: normal; orphans: 2; text-align: center; text-indent: 0px; text-transform: none; widows: 2; word-spacing: 0px; -webkit-text-stroke-width: 0px; white-space: normal; background-color: rgb(236, 236, 236); text-decoration-thickness: initial; text-decoration-style: initial; text-decoration-color: initial; display: inline !important; float: none;&quot;&gt;multiply_matrix(a, b)&lt;/span&gt;" style="text;whiteSpace=wrap;html=1;" vertex="1" parent="1">
          <mxGeometry x="2117" y="326.5" width="140" height="40" as="geometry" />
        </mxCell>
        <mxCell id="YC21IxaJlrMR5ol1vRR9-188" value="&lt;span style=&quot;color: rgb(0, 0, 0); font-family: Helvetica; font-size: 12px; font-style: normal; font-variant-ligatures: normal; font-variant-caps: normal; font-weight: 400; letter-spacing: normal; orphans: 2; text-align: center; text-indent: 0px; text-transform: none; widows: 2; word-spacing: 0px; -webkit-text-stroke-width: 0px; white-space: normal; background-color: rgb(236, 236, 236); text-decoration-thickness: initial; text-decoration-style: initial; text-decoration-color: initial; display: inline !important; float: none;&quot;&gt;transpose(matrix)&lt;/span&gt;" style="text;whiteSpace=wrap;html=1;" vertex="1" parent="1">
          <mxGeometry x="2900" y="332" width="130" height="40" as="geometry" />
        </mxCell>
        <mxCell id="YC21IxaJlrMR5ol1vRR9-195" value="&lt;font style=&quot;font-size: 7px;&quot;&gt;i&lt;/font&gt;" style="text;html=1;align=center;verticalAlign=middle;resizable=0;points=[];autosize=1;strokeColor=none;fillColor=none;" vertex="1" parent="1">
          <mxGeometry x="3088" y="1066" width="30" height="30" as="geometry" />
        </mxCell>
        <mxCell id="YC21IxaJlrMR5ol1vRR9-196" value="&lt;span style=&quot;text-wrap-mode: wrap;&quot;&gt;&lt;font style=&quot;font-size: 8px;&quot;&gt;0&lt;/font&gt;&lt;/span&gt;" style="text;html=1;align=center;verticalAlign=middle;resizable=0;points=[];autosize=1;strokeColor=none;fillColor=none;" vertex="1" parent="1">
          <mxGeometry x="2308" y="764" width="30" height="30" as="geometry" />
        </mxCell>
        <mxCell id="YC21IxaJlrMR5ol1vRR9-198" value="&lt;span style=&quot;text-wrap-mode: wrap;&quot;&gt;&lt;font style=&quot;font-size: 8px;&quot;&gt;0&lt;/font&gt;&lt;/span&gt;" style="text;html=1;align=center;verticalAlign=middle;resizable=0;points=[];autosize=1;strokeColor=none;fillColor=none;" vertex="1" parent="1">
          <mxGeometry x="2336" y="602" width="30" height="30" as="geometry" />
        </mxCell>
        <mxCell id="YC21IxaJlrMR5ol1vRR9-200" value="ij" style="text;html=1;align=center;verticalAlign=middle;resizable=0;points=[];autosize=1;strokeColor=none;fillColor=none;fontSize=6;" vertex="1" parent="1">
          <mxGeometry x="2491" y="1878" width="30" height="20" as="geometry" />
        </mxCell>
        <mxCell id="YC21IxaJlrMR5ol1vRR9-201" value="il" style="text;html=1;align=center;verticalAlign=middle;resizable=0;points=[];autosize=1;strokeColor=none;fillColor=none;fontSize=6;" vertex="1" parent="1">
          <mxGeometry x="2518" y="1878" width="30" height="20" as="geometry" />
        </mxCell>
        <mxCell id="YC21IxaJlrMR5ol1vRR9-202" value="lj" style="text;html=1;align=center;verticalAlign=middle;resizable=0;points=[];autosize=1;strokeColor=none;fillColor=none;fontSize=6;" vertex="1" parent="1">
          <mxGeometry x="2535" y="1878" width="30" height="20" as="geometry" />
        </mxCell>
        <mxCell id="YC21IxaJlrMR5ol1vRR9-203" value="&lt;span style=&quot;text-wrap-mode: wrap;&quot;&gt;&lt;font style=&quot;font-size: 8px;&quot;&gt;0&lt;/font&gt;&lt;/span&gt;" style="text;html=1;align=center;verticalAlign=middle;resizable=0;points=[];autosize=1;strokeColor=none;fillColor=none;" vertex="1" parent="1">
          <mxGeometry x="1829" y="791" width="30" height="30" as="geometry" />
        </mxCell>
        <mxCell id="YC21IxaJlrMR5ol1vRR9-206" value="&lt;span style=&quot;text-wrap-mode: wrap;&quot;&gt;&lt;font style=&quot;font-size: 8px;&quot;&gt;i&lt;/font&gt;&lt;/span&gt;" style="text;html=1;align=center;verticalAlign=middle;resizable=0;points=[];autosize=1;strokeColor=none;fillColor=none;" vertex="1" parent="1">
          <mxGeometry x="1717" y="1508" width="30" height="30" as="geometry" />
        </mxCell>
        <mxCell id="YC21IxaJlrMR5ol1vRR9-207" value="&lt;span style=&quot;text-wrap-mode: wrap;&quot;&gt;&lt;font style=&quot;font-size: 8px;&quot;&gt;ij&lt;/font&gt;&lt;/span&gt;" style="text;html=1;align=center;verticalAlign=middle;resizable=0;points=[];autosize=1;strokeColor=none;fillColor=none;" vertex="1" parent="1">
          <mxGeometry x="1771" y="1508" width="30" height="30" as="geometry" />
        </mxCell>
        <mxCell id="YC21IxaJlrMR5ol1vRR9-210" value="&lt;span style=&quot;text-wrap-mode: wrap;&quot;&gt;&lt;font style=&quot;font-size: 8px;&quot;&gt;j&lt;/font&gt;&lt;/span&gt;" style="text;html=1;align=center;verticalAlign=middle;resizable=0;points=[];autosize=1;strokeColor=none;fillColor=none;" vertex="1" parent="1">
          <mxGeometry x="1812.5" y="1508" width="30" height="30" as="geometry" />
        </mxCell>
        <mxCell id="YC21IxaJlrMR5ol1vRR9-212" value="&lt;span style=&quot;text-wrap-mode: wrap;&quot;&gt;&lt;font style=&quot;font-size: 8px;&quot;&gt;i&lt;/font&gt;&lt;/span&gt;" style="text;html=1;align=center;verticalAlign=middle;resizable=0;points=[];autosize=1;strokeColor=none;fillColor=none;" vertex="1" parent="1">
          <mxGeometry x="270.5" y="1101" width="30" height="30" as="geometry" />
        </mxCell>
        <mxCell id="YC21IxaJlrMR5ol1vRR9-213" value="&lt;span style=&quot;text-wrap-mode: wrap;&quot;&gt;&lt;font style=&quot;font-size: 8px;&quot;&gt;i&lt;/font&gt;&lt;/span&gt;" style="text;html=1;align=center;verticalAlign=middle;resizable=0;points=[];autosize=1;strokeColor=none;fillColor=none;" vertex="1" parent="1">
          <mxGeometry x="269" y="1115" width="30" height="30" as="geometry" />
        </mxCell>
        <mxCell id="YC21IxaJlrMR5ol1vRR9-215" value="&lt;span style=&quot;text-wrap-mode: wrap;&quot;&gt;&lt;font style=&quot;font-size: 8px;&quot;&gt;ri&lt;/font&gt;&lt;/span&gt;" style="text;html=1;align=center;verticalAlign=middle;resizable=0;points=[];autosize=1;strokeColor=none;fillColor=none;" vertex="1" parent="1">
          <mxGeometry x="671" y="1337" width="30" height="30" as="geometry" />
        </mxCell>
        <mxCell id="YC21IxaJlrMR5ol1vRR9-216" value="&lt;span style=&quot;text-wrap-mode: wrap;&quot;&gt;&lt;font style=&quot;font-size: 8px;&quot;&gt;i&lt;/font&gt;&lt;/span&gt;" style="text;html=1;align=center;verticalAlign=middle;resizable=0;points=[];autosize=1;strokeColor=none;fillColor=none;" vertex="1" parent="1">
          <mxGeometry x="602" y="1538" width="30" height="30" as="geometry" />
        </mxCell>
        <mxCell id="YC21IxaJlrMR5ol1vRR9-217" value="&lt;span style=&quot;text-wrap-mode: wrap;&quot;&gt;&lt;font style=&quot;font-size: 8px;&quot;&gt;max_row&lt;/font&gt;&lt;/span&gt;" style="text;html=1;align=center;verticalAlign=middle;resizable=0;points=[];autosize=1;strokeColor=none;fillColor=none;" vertex="1" parent="1">
          <mxGeometry x="623" y="1538" width="60" height="30" as="geometry" />
        </mxCell>
        <mxCell id="YC21IxaJlrMR5ol1vRR9-220" value="&lt;span style=&quot;text-wrap-mode: wrap;&quot;&gt;&lt;font style=&quot;font-size: 8px;&quot;&gt;max_row&lt;/font&gt;&lt;/span&gt;" style="text;html=1;align=center;verticalAlign=middle;resizable=0;points=[];autosize=1;strokeColor=none;fillColor=none;" vertex="1" parent="1">
          <mxGeometry x="676" y="1538" width="60" height="30" as="geometry" />
        </mxCell>
        <mxCell id="YC21IxaJlrMR5ol1vRR9-221" value="&lt;span style=&quot;text-wrap-mode: wrap;&quot;&gt;&lt;font style=&quot;font-size: 8px;&quot;&gt;i&lt;/font&gt;&lt;/span&gt;" style="text;html=1;align=center;verticalAlign=middle;resizable=0;points=[];autosize=1;strokeColor=none;fillColor=none;" vertex="1" parent="1">
          <mxGeometry x="726" y="1538" width="30" height="30" as="geometry" />
        </mxCell>
        <mxCell id="YC21IxaJlrMR5ol1vRR9-222" value="&lt;span style=&quot;text-wrap-mode: wrap;&quot;&gt;&lt;font style=&quot;font-size: 8px;&quot;&gt;ii&lt;/font&gt;&lt;/span&gt;" style="text;html=1;align=center;verticalAlign=middle;resizable=0;points=[];autosize=1;strokeColor=none;fillColor=none;" vertex="1" parent="1">
          <mxGeometry x="685" y="1707" width="30" height="30" as="geometry" />
        </mxCell>
        <mxCell id="YC21IxaJlrMR5ol1vRR9-225" value="&lt;span style=&quot;text-wrap-mode: wrap;&quot;&gt;&lt;font style=&quot;font-size: 8px;&quot;&gt;ij&lt;/font&gt;&lt;/span&gt;" style="text;html=1;align=center;verticalAlign=middle;resizable=0;points=[];autosize=1;strokeColor=none;fillColor=none;" vertex="1" parent="1">
          <mxGeometry x="376" y="1922" width="30" height="30" as="geometry" />
        </mxCell>
        <mxCell id="YC21IxaJlrMR5ol1vRR9-228" value="&lt;span style=&quot;text-wrap-mode: wrap;&quot;&gt;&lt;font style=&quot;font-size: 8px;&quot;&gt;ki&lt;/font&gt;&lt;/span&gt;" style="text;html=1;align=center;verticalAlign=middle;resizable=0;points=[];autosize=1;strokeColor=none;fillColor=none;" vertex="1" parent="1">
          <mxGeometry x="559" y="2014.5" width="30" height="30" as="geometry" />
        </mxCell>
        <mxCell id="YC21IxaJlrMR5ol1vRR9-231" value="&lt;span style=&quot;text-wrap-mode: wrap;&quot;&gt;&lt;font style=&quot;font-size: 8px;&quot;&gt;kj&lt;/font&gt;&lt;/span&gt;" style="text;html=1;align=center;verticalAlign=middle;resizable=0;points=[];autosize=1;strokeColor=none;fillColor=none;" vertex="1" parent="1">
          <mxGeometry x="498" y="2202" width="30" height="30" as="geometry" />
        </mxCell>
        <mxCell id="YC21IxaJlrMR5ol1vRR9-232" value="&lt;span style=&quot;text-wrap-mode: wrap;&quot;&gt;&lt;font style=&quot;font-size: 8px;&quot;&gt;ij&lt;/font&gt;&lt;/span&gt;" style="text;html=1;align=center;verticalAlign=middle;resizable=0;points=[];autosize=1;strokeColor=none;fillColor=none;" vertex="1" parent="1">
          <mxGeometry x="576" y="2202" width="30" height="30" as="geometry" />
        </mxCell>
        <mxCell id="YC21IxaJlrMR5ol1vRR9-235" value="&lt;span style=&quot;text-wrap-mode: wrap;&quot;&gt;&lt;font style=&quot;font-size: 8px;&quot;&gt;ij&lt;/font&gt;&lt;/span&gt;" style="text;html=1;align=center;verticalAlign=middle;resizable=0;points=[];autosize=1;strokeColor=none;fillColor=none;" vertex="1" parent="1">
          <mxGeometry x="1121" y="2137" width="30" height="30" as="geometry" />
        </mxCell>
        <mxCell id="YC21IxaJlrMR5ol1vRR9-236" value="&lt;span style=&quot;text-wrap-mode: wrap;&quot;&gt;&lt;font style=&quot;font-size: 8px;&quot;&gt;i&lt;/font&gt;&lt;/span&gt;" style="text;html=1;align=center;verticalAlign=middle;resizable=0;points=[];autosize=1;strokeColor=none;fillColor=none;" vertex="1" parent="1">
          <mxGeometry x="1138" y="2137" width="30" height="30" as="geometry" />
        </mxCell>
        <mxCell id="YC21IxaJlrMR5ol1vRR9-237" value="&lt;span style=&quot;text-wrap-mode: wrap;&quot;&gt;&lt;font style=&quot;font-size: 8px;&quot;&gt;i&lt;/font&gt;&lt;/span&gt;" style="text;html=1;align=center;verticalAlign=middle;resizable=0;points=[];autosize=1;strokeColor=none;fillColor=none;" vertex="1" parent="1">
          <mxGeometry x="1332" y="2137" width="30" height="30" as="geometry" />
        </mxCell>
        <mxCell id="YC21IxaJlrMR5ol1vRR9-240" value="&lt;span style=&quot;text-wrap-mode: wrap;&quot;&gt;&lt;font style=&quot;font-size: 8px;&quot;&gt;in&lt;/font&gt;&lt;/span&gt;" style="text;html=1;align=center;verticalAlign=middle;resizable=0;points=[];autosize=1;strokeColor=none;fillColor=none;" vertex="1" parent="1">
          <mxGeometry x="1357" y="2137" width="30" height="30" as="geometry" />
        </mxCell>
      </root>
    </mxGraphModel>
  </diagram>
</mxfile>
